<?xml version="1.0" standalone="no"?>
<!DOCTYPE svg PUBLIC "-//W3C//DTD SVG 20010904//EN"
 "http://www.w3.org/TR/2001/REC-SVG-20010904/DTD/svg10.dtd">
<svg version="1.0" xmlns="http://www.w3.org/2000/svg"
 width="256.000000pt" height="256.000000pt" viewBox="0 0 256.000000 256.000000"
 preserveAspectRatio="xMidYMid meet">
<metadata>
Created by potrace 1.11, written by Peter Selinger 2001-2013
</metadata>
<g transform="translate(0.000000,256.000000) scale(0.100000,-0.100000)"
fill="#000000" stroke="none">
<path d="M1165 2554 c-577 -63 -1034 -478 -1140 -1037 -115 -603 217 -1202
790 -1426 465 -183 991 -77 1351 272 191 184 313 407 371 677 24 112 24 349 0
472 -78 396 -325 726 -680 907 -105 53 -223 94 -341 116 -82 16 -281 26 -351
19z m377 -238 c305 -78 553 -279 693 -561 32 -63 67 -153 82 -210 23 -89 26
-118 26 -265 0 -146 -3 -176 -26 -262 -180 -674 -926 -1004 -1537 -682 -257
136 -461 394 -537 679 -23 89 -26 118 -26 265 0 147 3 176 26 265 111 417 456
727 883 795 103 16 307 4 416 -24z"/>
<path d="M1252 2238 c-19 -19 -16 -153 4 -172 19 -20 29 -20 48 0 12 11 16 35
16 88 0 73 -10 96 -40 96 -9 0 -21 -5 -28 -12z"/>
<path d="M655 1825 c-15 -15 -25 -36 -25 -54 0 -32 26 -57 354 -350 116 -103
163 -152 172 -177 21 -61 65 -94 126 -94 61 0 128 62 128 117 0 9 63 81 140
158 142 143 153 160 134 210 -9 23 -60 46 -87 40 -13 -4 -82 -65 -153 -136
-181 -181 -151 -186 -437 69 -122 108 -235 207 -251 220 -37 29 -71 28 -101
-3z"/>
<path d="M322 1308 c-7 -7 -12 -19 -12 -28 0 -30 23 -40 96 -40 70 0 104 13
104 40 0 5 -7 16 -16 24 -19 20 -153 23 -172 4z"/>
<path d="M2066 1305 c-9 -9 -16 -20 -16 -25 0 -5 7 -16 16 -25 24 -23 162 -18
178 8 8 12 8 22 0 35 -16 25 -154 30 -178 7z"/>
<path d="M1255 494 c-23 -24 -18 -162 8 -178 12 -8 22 -8 35 0 25 16 30 154 7
178 -9 9 -20 16 -25 16 -5 0 -16 -7 -25 -16z"/>
</g>
</svg>
